<?xml version="1.0" encoding="UTF-8"?>
<svg width="40px" height="40px" viewBox="0 0 40 40" version="1.1" xmlns="http://www.w3.org/2000/svg" xmlns:xlink="http://www.w3.org/1999/xlink">
    <g stroke="none" stroke-width="1" fill="none" fill-rule="evenodd">
        <path d="M30,18 C31.1045695,18 32,18.8954305 32,20 C32,21.0543618 31.1841222,21.9181651 30.1492623,21.9945143 L30,22 L8,22 C6.8954305,22 6,21.1045695 6,20 C6,18.9456382 6.81587779,18.0818349 7.85073766,18.0054857 L8,18 L30,18 Z" id="2" fill="#FFFFFF"></path>
        <path d="M28.5857864,18.5857864 C29.366835,17.8047379 30.633165,17.8047379 31.4142136,18.5857864 C32.1541543,19.3257272 32.1930986,20.5012114 31.5310463,21.2869988 L31.4142136,21.4142136 L23.4142136,29.4142136 C22.633165,30.1952621 21.366835,30.1952621 20.5857864,29.4142136 C19.8458457,28.6742728 19.8069014,27.4987886 20.4689537,26.7130012 L20.5857864,26.5857864 L28.5857864,18.5857864 Z" id="3" fill="#FFFFFF"></path>
        <path d="M20.5857864,10.5857864 C21.3257272,9.84584567 22.5012114,9.80690142 23.2869988,10.4689537 L23.4142136,10.5857864 L31.4142136,18.5857864 C32.1952621,19.366835 32.1952621,20.633165 31.4142136,21.4142136 C30.6742728,22.1541543 29.4987886,22.1930986 28.7130012,21.5310463 L28.5857864,21.4142136 L20.5857864,13.4142136 C19.8047379,12.633165 19.8047379,11.366835 20.5857864,10.5857864 Z" id="1" fill="#FFFFFF"></path>
        <path d="M30.5069341,21.9351988 L30.4962917,21.9379419 L30.4962917,21.9379419 L30.5079183,21.9349415 C30.5033261,21.9361435 30.4987275,21.9373295 30.4941224,21.9384995 L30.437,21.951 L30.44,21.951 L30.4229181,21.9552 L30.4229181,21.9552 L30.437,21.951 L30.3650573,21.9665909 L30.3650573,21.9665909 L30.4229181,21.9552 C30.3951574,21.9611763 30.3671825,21.9665763 30.3390066,21.971387 C30.3339225,21.9722556 30.328931,21.9730879 30.3239333,21.9739018 C30.3047972,21.977019 30.2854306,21.9798839 30.2659757,21.9824691 L30.3120378,21.9758021 L30.3120378,21.9758021 L30.3650573,21.9665909 C30.3109932,21.9765769 30.256597,21.9843243 30.2020175,21.9898331 L30.2018273,21.9899427 L30.1817256,21.9918551 C30.1709291,21.9928275 30.1601077,21.9937141 30.1492623,21.9945143 L30.032,21.999 L30.0260276,21.9999068 L30,22 L25.17,22 L27.171,20 L25.171,18 L30,18 L30.0123208,18.0000377 C30.0479835,18.000256 30.0836416,18.0014223 30.1192539,18.0035366 L30,18 C30.0669205,18 30.1330733,18.0032867 30.1983059,18.0097076 C30.200034,18.0099667 30.2020256,18.0101668 30.2040171,18.0103698 L30.2617659,18.016976 C30.2957697,18.0214211 30.3295048,18.0267203 30.3629491,18.0328514 C30.4201925,18.0433454 30.4765837,18.0562765 30.5320114,18.0715333 L30.502,18.064 L30.5176233,18.067631 C30.529942,18.0709225 30.5422138,18.0743286 30.5544375,18.0778481 L30.5637909,18.0805661 C30.6697986,18.1117481 30.7738373,18.1517754 30.8746142,18.2007698 L30.8625647,18.1950517 C30.8728476,18.2000063 30.8765101,18.2017903 30.8801663,18.203585 L30.897,18.212 L30.985,18.259 L31.009,18.273 L31.0236993,18.2814921 C31.0301297,18.2853309 31.0365368,18.2892048 31.0429203,18.2931135 L31.062,18.306 L31.034122,18.287556 L31.1032939,18.3313739 L31.1032939,18.3313739 L31.13,18.35 L31.1599712,18.3705534 C31.1682933,18.3764884 31.1765681,18.3824856 31.1847948,18.3885443 L31.188,18.391 L31.195,18.396 L31.234,18.426 L31.2961894,18.4767442 L31.2961894,18.4767442 L31.2956361,18.4763577 C31.3038003,18.4833346 31.3079812,18.4869419 31.3121469,18.4905663 L31.4142136,18.5857864 L31.5236423,18.7043639 L31.571,18.763 L31.573,18.765 L31.6,18.8 L31.6465418,18.8640876 L31.6465418,18.8640876 L31.6682601,18.8964686 L31.6682601,18.8964686 L31.691,18.932 L31.667,18.896 L31.697,18.943 L31.733799,19.0020362 L31.733799,19.0020362 L31.7335556,19.0019387 C31.8487423,19.2014446 31.926462,19.4164439 31.966958,19.636936 L31.9561052,19.5813092 L31.9710887,19.6592509 L31.9710887,19.6592509 L31.983024,19.7382341 L31.983024,19.7382341 L31.979,19.716 L31.9896302,19.7959829 L31.9896302,19.7959829 L31.9914053,19.8133487 L31.9914053,19.8133487 L31.995,19.873 L31.9993857,19.9499387 L31.9997785,19.9699277 C32.0012554,20.0704941 31.9952579,20.1706932 31.9817895,20.2700739 L31.968,20.351 L31.98,20.28 L31.9690846,20.3512876 C31.9642925,20.3782854 31.9589433,20.4052038 31.953037,20.4320241 L31.9524042,20.4357003 L31.9342794,20.5097694 L31.9342794,20.5097694 L31.913,20.584 L31.889,20.657 L31.8634858,20.7276251 L31.8634858,20.7276251 L31.8577812,20.7421443 L31.8577812,20.7421443 L31.832,20.802 L31.7987039,20.875488 C31.7467999,20.9823028 31.6848132,21.0853138 31.6127752,21.1832473 L31.5932078,21.2091828 L31.5932078,21.2091828 L31.581,21.224 L31.5621262,21.249185 L31.5621262,21.249185 L31.5445583,21.2706561 L31.5445583,21.2706561 L31.5441289,21.27131 L31.5356348,21.2815331 C31.5266746,21.2922448 31.5175848,21.3028848 31.5083653,21.3134509 L31.532,21.284 L31.529,21.288 L31.4931365,21.3306483 C31.4756098,21.3503014 31.4577009,21.3696062 31.4394214,21.3885511 L31.5441289,21.27131 C31.4868475,21.3408361 31.4249358,21.4064352 31.3588643,21.4676355 L31.4389958,21.3889983 C31.3964518,21.4330877 31.3517521,21.4753392 31.3051151,21.5155306 C31.2864146,21.531777 31.2673264,21.5476221 31.2479425,21.5631147 C31.2270973,21.5796529 31.2060181,21.5958291 31.1846136,21.6115891 L31.2693418,21.5457513 C31.2368426,21.5725038 31.2036968,21.5980746 31.1699617,21.6224637 C31.1626215,21.6276829 31.1552461,21.6329339 31.1478336,21.6381359 C31.146151,21.6394149 31.1444669,21.6405939 31.1427815,21.64177 L31.1431184,21.6413351 L31.0716987,21.6890109 C31.048393,21.703825 31.0247587,21.7181707 31.0008094,21.7320345 L31.1431184,21.6413351 C31.0795077,21.6858533 31.0140512,21.7260887 30.9470229,21.7621633 C30.9157735,21.7789061 30.8836421,21.7951133 30.8510273,21.8104661 L30.8397623,21.8157573 L30.8397623,21.8157573 L30.8004278,21.8333956 L30.8004278,21.8333956 L30.759,21.85 L30.825,21.821 L30.749,21.854 L30.6997448,21.8741937 C30.6983904,21.8746994 30.6970353,21.8752038 30.6956795,21.8757067 L30.7283042,21.8632549 L30.677825,21.8821379 L30.677825,21.8821379 C30.6806046,21.8812304 30.6786454,21.881938 30.6766847,21.8826427 L30.672,21.883 L30.669,21.884 L30.67,21.884 L30.672,21.883 L30.677825,21.8821379 L30.67,21.884 L30.662,21.887 L30.6492123,21.8922741 C30.6225903,21.9014057 30.5957147,21.9099912 30.5685988,21.9180174 L30.604,21.906 L30.5308942,21.9286095 L30.5209664,21.931479 C30.5162957,21.9327354 30.5116183,21.9339754 30.5069341,21.9351988 Z" id="Combined-Shape" fill="#FFFFFF"></path>
        <path d="M31.2869988,18.4689537 L31.4142136,18.5857864 C32.1952621,19.366835 32.1952621,20.633165 31.4142136,21.4142136 C30.6742728,22.1541543 29.4987886,22.1930986 28.7130012,21.5310463 L28.5857864,21.4142136 L27.171,20 L28.5857864,18.5857864 C29.3257272,17.8458457 30.5012114,17.8069014 31.2869988,18.4689537 Z" id="Combined-Shape" fill="#FFFFFF"></path>
    </g>
</svg>