<?xml version="1.0" encoding="UTF-8"?>
<svg width="50px" height="50px" viewBox="0 0 50 50" version="1.1" xmlns="http://www.w3.org/2000/svg" xmlns:xlink="http://www.w3.org/1999/xlink">
    <g stroke="none" stroke-width="1" fill="none" fill-rule="evenodd">
        <g transform="translate(-10.060870, -17.000000)">
            <path d="M59.1337242,43.3847961 C59.1337242,44.6946176 58.0721127,45.7562291 56.7622912,45.7562291 C55.4525488,45.7562291 54.3908582,44.6946176 54.3908582,43.3847961 C54.3908582,39.6023605 51.3135287,36.5250309 47.5311722,36.5250309 C43.747867,36.5250309 40.6706165,39.6023605 40.6706165,43.3847961 C40.6706165,44.6946176 39.608926,45.7562291 38.2991836,45.7562291 C36.9901525,45.7562291 35.9277506,44.6946176 35.9277506,43.3847961 C35.9277506,38.5952919 38.8446131,34.4745319 42.9962018,32.7054429 C43.006399,32.7014905 43.0159638,32.6967476 43.0261609,32.6927952 C44.173144,33.8627022 45.7699089,34.5899416 47.5334645,34.5899416 C49.2963088,34.5899416 50.8929946,33.8634927 52.0391872,32.6935857 C56.204214,34.4563509 59.1337242,38.5850157 59.1337242,43.3847961" id="Fill-1" fill="#F39200"></path>
            <path d="M43.7905844,59.6686359 C43.7905844,60.9784574 42.7289729,62.0400689 41.4191514,62.0400689 C40.10933,62.0400689 39.0477185,60.9784574 39.0477185,59.6686359 C39.0477185,53.2317763 33.810804,47.9948618 27.3739444,47.9948618 C20.9362943,47.9948618 15.6993798,53.2317763 15.6993798,59.6686359 C15.6993798,60.9784574 14.6377683,62.0400689 13.3279468,62.0400689 C12.0189158,62.0400689 10.9565138,60.9784574 10.9565138,59.6686359 C10.9565138,52.7930612 15.2053313,46.8905645 21.2153329,44.45036 C22.7615072,46.0898106 24.9527113,47.1142697 27.3778968,47.1142697 C29.8022917,47.1142697 31.9919149,46.0906011 33.5388796,44.4535219 C39.5449289,46.8953074 43.7905844,52.7954326 43.7905844,59.6686359" id="Fill-6" fill="#F39200"></path>
            <path d="M33.5388876,44.4535219 C31.9919228,46.0906011 29.8022997,47.1142697 27.3779047,47.1142697 C24.9527192,47.1142697 22.7615151,46.0898106 21.2153408,44.45036 C21.3837126,44.3823789 21.5536653,44.3167692 21.7244084,44.253531 C23.4871736,43.6061298 25.3898533,43.2519958 27.3739523,43.2519958 C29.3580512,43.2519958 31.2607309,43.6053394 33.0227056,44.253531 C33.1958202,44.3175597 33.3681444,44.3839598 33.5388876,44.4535219" id="Fill-9" fill="#EF7D00"></path>
            <path d="M35.851841,38.6411555 C35.851841,40.8884834 34.9720394,42.9350301 33.5389034,44.4535377 C33.3681602,44.3839757 33.1958361,44.3175755 33.0227215,44.2535468 C31.2607467,43.6053552 29.358067,43.2520116 27.3739681,43.2520116 C25.3898692,43.2520116 23.4871894,43.6061456 21.7244242,44.2535468 C21.5536811,44.3167851 21.3837284,44.3823947 21.2153566,44.4503758 C19.7830111,42.9326587 18.9047904,40.887693 18.9047904,38.6411555 C18.9047904,38.6292983 18.9047904,38.6174411 18.9055809,38.6063744 C18.9237619,39.9003864 19.9790496,40.9430264 21.2762234,40.9430264 C22.5741877,40.9430264 23.6286849,39.9003864 23.6468659,38.6063744 C23.6476564,38.6174411 23.6476564,38.6292983 23.6476564,38.6411555 C23.6476564,40.6979783 25.3210976,42.3713405 27.3779205,42.3713405 C29.4355338,42.3713405 31.108975,40.6979783 31.108975,38.6411555 C31.108975,38.6292983 31.108975,38.6174411 31.1097655,38.6063744 C31.1279465,39.9003864 32.1824437,40.9430264 33.480408,40.9430264 C34.7775819,40.9430264 35.8328695,39.9003864 35.8510505,38.6063744 C35.851841,38.6174411 35.851841,38.6292983 35.851841,38.6411555" id="Fill-11" fill="#F39200"></path>
            <path d="M23.6468422,38.6063428 C23.6286612,39.9003547 22.574164,40.9429948 21.2761997,40.9429948 C19.9790259,40.9429948 18.9237382,39.9003547 18.9055572,38.6063428 C18.9237382,37.3123309 19.9790259,36.2696908 21.2761997,36.2696908 C22.574164,36.2696908 23.6286612,37.3123309 23.6468422,38.6063428" id="Fill-13" fill="#EF7D00"></path>
            <path d="M35.8510347,38.6063428 C35.8328537,39.9003547 34.777566,40.9429948 33.4803922,40.9429948 C32.1824279,40.9429948 31.1279307,39.9003547 31.1097497,38.6063428 C31.1279307,37.3123309 32.1824279,36.2696908 33.4803922,36.2696908 C34.777566,36.2696908 35.8328537,37.3123309 35.8510347,38.6063428" id="Fill-15" fill="#EF7D00"></path>
            <path d="M35.851841,38.5715618 C35.851841,38.583419 35.851841,38.5952761 35.8510505,38.6063428 C35.8328695,37.3123309 34.7775819,36.2696908 33.480408,36.2696908 C32.1824437,36.2696908 31.1279465,37.3123309 31.1097655,38.6063428 C31.108975,38.5952761 31.108975,38.583419 31.108975,38.5715618 C31.108975,36.5147389 29.4355338,34.8412977 27.3779205,34.8412977 C25.3210976,34.8412977 23.6476564,36.5147389 23.6476564,38.5715618 C23.6476564,38.583419 23.6476564,38.5952761 23.6468659,38.6063428 C23.6286849,37.3123309 22.5741877,36.2696908 21.2762234,36.2696908 C19.9790496,36.2696908 18.9237619,37.3123309 18.9055809,38.6063428 C18.9047904,38.5952761 18.9047904,38.583419 18.9047904,38.5715618 C18.9047904,33.8990483 22.7061975,30.0984318 27.3779205,30.0984318 C32.0504339,30.0984318 35.851841,33.8990483 35.851841,38.5715618" id="Fill-17" fill="#F39200"></path>
            <path d="M52.0391872,32.6935857 C50.8929946,33.8634927 49.2963088,34.5899416 47.5334645,34.5899416 C45.7699089,34.5899416 44.173144,33.8627022 43.0261609,32.6927952 C44.4119473,32.1062608 45.9344073,31.782165 47.5311722,31.782165 C49.127937,31.782165 50.6511084,32.1062608 52.0376062,32.6927952 C52.0383967,32.6927952 52.0383967,32.6935857 52.0391872,32.6935857" id="Fill-29" fill="#EF7D00"></path>
            <path d="M53.8454761,28.2771712 C53.8454761,29.9940887 53.1553891,31.5544916 52.0391556,32.6935699 C52.0384442,32.6935699 52.0384442,32.6927794 52.0376537,32.6927794 C50.6511559,32.106245 49.1279054,31.7821492 47.5311405,31.7821492 C45.9343757,31.7821492 44.4119157,32.106245 43.0262083,32.6927794 C41.9092634,31.5537011 41.2207574,29.9940887 41.2207574,28.2771712 C41.2207574,28.268476 41.2207574,28.2605712 41.2215478,28.2518759 C41.234986,29.2154682 42.0207208,29.9925077 42.9874749,29.9925077 C43.9542291,29.9925077 44.7399639,29.2154682 44.753402,28.2518759 C44.7541925,28.2605712 44.7541925,28.268476 44.7541925,28.2771712 C44.7541925,29.8099074 46.0007758,31.0564907 47.533512,31.0564907 C49.0654577,31.0564907 50.3120409,29.8099074 50.3120409,28.2771712 C50.3120409,28.268476 50.3120409,28.2605712 50.3128314,28.2518759 C50.3261905,29.2154682 51.1120043,29.9925077 52.0786795,29.9925077 C53.0463032,29.9925077 53.8312475,29.2154682 53.8446856,28.2518759 C53.8454761,28.2605712 53.8454761,28.268476 53.8454761,28.2771712" id="Fill-31" fill="#F39200"></path>
            <path d="M44.753402,28.2518917 C44.7399639,29.215484 43.9542291,29.9925236 42.9874749,29.9925236 C42.0207208,29.9925236 41.234986,29.215484 41.2215478,28.2518917 C41.2341955,27.2882995 42.0207208,26.5104695 42.9874749,26.5104695 C43.9542291,26.5104695 44.7407544,27.2882995 44.753402,28.2518917" id="Fill-33" fill="#EF7D00"></path>
            <path d="M53.8447093,28.2518917 C53.8312712,29.215484 53.0462478,29.9925236 52.0787032,29.9925236 C51.1120281,29.9925236 50.3262142,29.215484 50.3127761,28.2518917 C50.3254237,27.2882995 51.1120281,26.5104695 52.0787032,26.5104695 C53.0462478,26.5104695 53.8320617,27.2882995 53.8447093,28.2518917" id="Fill-35" fill="#EF7D00"></path>
            <path d="M53.8454761,28.2257981 C53.8454761,28.2344933 53.8454761,28.2431886 53.8446856,28.2518838 C53.832038,27.2882916 53.0463032,26.5104616 52.0786795,26.5104616 C51.1120043,26.5104616 50.3254791,27.2882916 50.3128314,28.2518838 C50.3120409,28.2431886 50.3120409,28.2344933 50.3120409,28.2257981 C50.3120409,26.6930619 49.0654577,25.4464786 47.533512,25.4464786 C46.0007758,25.4464786 44.7541925,26.6930619 44.7541925,28.2257981 C44.7541925,28.2344933 44.7541925,28.2431886 44.753402,28.2518838 C44.7407544,27.2882916 43.9542291,26.5104616 42.9874749,26.5104616 C42.0207208,26.5104616 41.2341955,27.2882916 41.2215478,28.2518838 C41.2207574,28.2431886 41.2207574,28.2344933 41.2207574,28.2257981 C41.2207574,24.7445345 44.0522483,21.9130435 47.533512,21.9130435 C51.0139851,21.9130435 53.8454761,24.7445345 53.8454761,28.2257981" id="Fill-37" fill="#F39200"></path>
        </g>
    </g>
</svg>